HIERARCHY
ROOT Hips
{
	OFFSET 0 0 0
	CHANNELS 6 Xposition Yposition Zposition Yrotation Xrotation Zrotation
	JOINT Spine
	{
		OFFSET -0 8.49848 -2.70889
		CHANNELS 3 Yrotation Xrotation Zrotation
		JOINT Spine1
		{
			OFFSET -0 9.87358 0
			CHANNELS 3 Yrotation Xrotation Zrotation
			JOINT Spine2
			{
				OFFSET -0 9.87358 0
				CHANNELS 3 Yrotation Xrotation Zrotation
				JOINT Spine3
				{
					OFFSET -0 9.87358 0
					CHANNELS 3 Yrotation Xrotation Zrotation
					JOINT Neck
					{
						OFFSET -0 15.0924 3.70889
						CHANNELS 3 Yrotation Xrotation Zrotation
						JOINT Head
						{
							OFFSET -0 10.6231 0
							CHANNELS 3 Yrotation Xrotation Zrotation
							End Site
							{
								OFFSET 0 15 0
							}
						}
					}
					JOINT LeftShoulder
					{
						OFFSET 1.77052 5.74391 3.54103
						CHANNELS 3 Yrotation Xrotation Zrotation
						JOINT LeftArm
						{
							OFFSET 16.6103 0 0
							CHANNELS 3 Yrotation Xrotation Zrotation
							JOINT LeftForeArm
							{
								OFFSET 23.9031 0 0
								CHANNELS 3 Yrotation Xrotation Zrotation
								JOINT LeftHand
								{
									OFFSET 22.9034 0 0
									CHANNELS 3 Yrotation Xrotation Zrotation
									End Site
									{
										OFFSET 15 0 0
									}
								}
							}
						}
					}
					JOINT RightShoulder
					{
						OFFSET -1.77052 5.74391 3.54103
						CHANNELS 3 Yrotation Xrotation Zrotation
						JOINT RightArm
						{
							OFFSET -16.6103 0 0
							CHANNELS 3 Yrotation Xrotation Zrotation
							JOINT RightForeArm
							{
								OFFSET -23.9031 0 0
								CHANNELS 3 Yrotation Xrotation Zrotation
								JOINT RightHand
								{
									OFFSET -22.9034 0 0
									CHANNELS 3 Yrotation Xrotation Zrotation
									End Site
									{
										OFFSET -15 0 0
									}
								}
							}
						}
					}
				}
			}
		}
	}
	JOINT LeftUpLeg
	{
		OFFSET 10.6231 -3.54103 2
		CHANNELS 3 Yrotation Xrotation Zrotation
		JOINT LeftLeg
		{
			OFFSET -0 -40.1531 2.47872
			CHANNELS 3 Yrotation Xrotation Zrotation
			JOINT LeftFoot
			{
				OFFSET -0 -42.693 -2.47872
				CHANNELS 3 Yrotation Xrotation Zrotation
				JOINT LeftToeBase
				{
					OFFSET -0 -6.83596 15.9346
					CHANNELS 3 Yrotation Xrotation Zrotation
					End Site
					{
						OFFSET 0 0 5
					}
				}
			}
		}
	}
	JOINT RightUpLeg
	{
		OFFSET -10.6231 -3.54103 2
		CHANNELS 3 Yrotation Xrotation Zrotation
		JOINT RightLeg
		{
			OFFSET -0 -40.1531 2.47872
			CHANNELS 3 Yrotation Xrotation Zrotation
			JOINT RightFoot
			{
				OFFSET -0 -42.693 -2.47872
				CHANNELS 3 Yrotation Xrotation Zrotation
				JOINT RightToeBase
				{
					OFFSET -0 -6.83596 15.9346
					CHANNELS 3 Yrotation Xrotation Zrotation
					End Site
					{
						OFFSET 0 0 5
					}
				}
			}
		}
	}
}
MOTION
Frames: 15
Frame Time: 0.00833333
0 95.450257 0 0 0 0 0 0 0 0 0 0 0 0 0 0 0 0 0 0 0 0 0 0 0 0 0 0 0 0 0 0 0 0 0 0 0 0 0 0 0 0 0 0 0 0 0 0 0 0 0 0 0 0 0 0 0 0 0 0 0 0 0 0 0 0 0 0 0 0 0 0
-91.788873 94.551056 75.785107 -1.331112 1.434658 2.584522 0.282479 0.154197 -1.409291 0.245740 -0.030272 -1.131996 0.036927 -0.260464 -0.803985 -0.026509 -0.362804 -0.414210 1.852756 -7.419155 0.576103 0.770096 5.926516 1.211215 6.934709 1.704536 -4.034103 -13.468415 6.546752 -61.639020 -11.628710 3.441574 -1.267796 8.438698 6.824337 -5.319076 -6.616953 -2.677206 2.855592 14.113181 7.092761 60.963456 7.240231 11.207896 3.756105 -13.777139 -4.582066 12.715143 25.268267 -1.414117 2.810767 0.000000 3.095523 0.000000 -1.859347 3.242074 -2.035384 0.000000 -5.719051 0.000000 -10.329288 0.377009 -11.492623 0.000000 1.878801 0.000000 3.228764 0.589392 6.407866 0.000000 -6.153461 0.000000
-91.779095 94.553192 75.777539 -1.344702 1.432556 2.587906 0.291407 0.177681 -1.411805 0.254618 -0.022876 -1.126448 0.012321 -0.265809 -0.792055 -0.050085 -0.361160 -0.423613 1.868565 -7.463062 0.571718 0.776830 5.944600 1.209485 6.979760 1.691365 -4.020637 -13.559070 6.585809 -61.693932 -11.619885 3.469874 -1.222406 8.421754 6.746074 -5.346610 -6.583893 -2.684638 2.864497 14.121587 7.105569 60.928835 7.242163 11.134959 3.800237 -13.851678 -4.508136 12.516558 25.286028 -1.416526 2.800876 0.000000 3.102993 0.000000 -1.866085 3.246775 -2.033102 0.000000 -5.742170 0.000000 -10.319559 0.377381 -11.498188 0.000000 1.859511 0.000000 3.227682 0.628657 6.358676 0.000000 -6.207301 0.000000
-91.772284 94.553101 75.768726 -1.354749 1.432403 2.587517 0.295461 0.198872 -1.391521 0.258914 -0.030952 -1.128207 0.012453 -0.259230 -0.805993 -0.051367 -0.350776 -0.416293 1.860479 -7.481260 0.576147 0.773210 5.967674 1.212034 6.957771 1.677188 -4.007700 -13.549644 6.589509 -61.721438 -11.632798 3.467487 -1.214802 8.440902 6.779482 -5.391851 -6.588857 -2.686358 2.859787 14.117465 7.079545 60.903796 7.216476 11.080877 3.828403 -13.901926 -4.402851 12.441409 25.291497 -1.417495 2.796301 0.000000 3.102628 0.000000 -1.861677 3.247613 -2.036047 0.000000 -5.735094 0.000000 -10.287731 0.383033 -11.503048 0.000000 1.844999 0.000000 3.211382 0.638597 6.393870 0.000000 -6.187994 0.000000
-91.765247 94.553992 75.762976 -1.366923 1.431245 2.586540 0.282216 0.199479 -1.401927 0.244156 -0.015633 -1.114342 0.020343 -0.240938 -0.785015 -0.042762 -0.364294 -0.417799 1.863700 -7.513906 0.560705 0.774954 5.989370 1.204967 6.977625 1.657015 -4.017759 -13.560141 6.606921 -61.747312 -11.639150 3.488516 -1.202438 8.432231 6.792238 -5.382536 -6.577525 -2.684846 2.852854 14.149738 7.087544 60.883396 7.198328 11.043430 3.807984 -13.900092 -4.325901 12.468354 25.292110 -1.416975 2.792845 0.000000 3.104395 0.000000 -1.852603 3.249200 -2.026405 0.000000 -5.752087 0.000000 -10.271380 0.384631 -11.505732 0.000000 1.836824 0.000000 3.202629 0.645251 6.425240 0.000000 -6.184867 0.000000
-91.759320 94.554407 75.759021 -1.376119 1.432190 2.588362 0.290475 0.177342 -1.394327 0.250627 0.019885 -1.112428 0.015794 -0.226437 -0.784770 -0.047072 -0.354767 -0.421503 1.843191 -7.530433 0.577837 0.765870 5.969764 1.173802 6.967658 1.660415 -4.014296 -13.557718 6.583225 -61.743865 -11.654095 3.444781 -1.220633 8.436400 6.812129 -5.424587 -6.571702 -2.715203 2.847035 14.096085 7.066218 60.873036 7.190247 11.123435 3.858097 -13.932282 -4.543903 12.331158 25.322752 -1.417367 2.785037 0.000000 3.106339 0.000000 -1.867539 3.246203 -2.022170 0.000000 -5.732652 0.000000 -10.266513 0.387177 -11.509220 0.000000 1.821849 0.000000 3.202851 0.641032 6.399934 0.000000 -6.157080 0.000000
-91.751642 94.553882 75.754645 -1.381898 1.431875 2.587739 0.279833 0.181845 -1.394459 0.239227 0.021002 -1.103919 0.022818 -0.205300 -0.776173 -0.039386 -0.346941 -0.423797 1.842839 -7.558965 0.582190 0.765537 5.973258 1.166185 6.982084 1.641510 -4.009892 -13.544018 6.561830 -61.756518 -11.653111 3.423849 -1.228412 8.407175 6.867678 -5.456645 -6.577967 -2.741339 2.823655 14.139460 7.071348 60.878618 7.158415 11.180266 3.862496 -13.883439 -4.570826 12.317554 25.318966 -1.418764 2.780295 0.000000 3.108229 0.000000 -1.853353 3.243911 -2.001272 0.000000 -5.723162 0.000000 -10.261830 0.388099 -11.514778 0.000000 1.810739 0.000000 3.201684 0.643839 6.427893 0.000000 -6.169098 0.000000
-91.744995 94.556232 75.749927 -1.391228 1.430760 2.589609 0.294046 0.202807 -1.382083 0.253508 0.016895 -1.102901 0.008641 -0.213124 -0.779848 -0.052843 -0.316654 -0.432881 1.835528 -7.533093 0.695530 0.762069 5.860652 0.978760 6.958742 1.647581 -4.018620 -13.471978 6.546274 -61.741927 -11.703316 3.408346 -1.230761 8.425200 6.912973 -5.501206 -6.575292 -2.755051 2.828310 14.132433 7.073411 60.849180 7.160561 11.125801 3.897992 -13.892049 -4.524266 12.301595 25.346076 -1.419328 2.775101 0.000000 3.111138 0.000000 -1.875738 3.251395 -2.001748 0.000000 -5.726180 0.000000 -10.244001 0.389068 -11.521853 0.000000 1.800612 0.000000 3.200758 0.667726 6.445553 0.000000 -6.197562 0.000000
-91.744073 94.556891 75.745703 -1.375377 1.430255 2.603770 0.284052 0.195349 -1.399229 0.240962 0.035325 -1.110619 -0.002800 -0.222634 -0.778393 -0.064080 -0.270035 -0.440984 1.834051 -7.563828 0.691091 0.760446 5.865233 1.042768 6.986434 1.615920 -3.979402 -13.451936 6.519296 -61.769455 -11.710816 3.459706 -1.227804 8.421650 6.845354 -5.516523 -6.522481 -2.798625 2.837434 14.067769 7.080800 60.844119 7.167423 11.237000 3.927161 -13.870086 -4.517104 12.294912 25.349073 -1.423072 2.758054 0.000000 3.113169 0.000000 -1.891051 3.269349 -2.007985 0.000000 -5.759253 0.000000 -10.263139 0.388115 -11.536532 0.000000 1.797429 0.000000 3.206169 0.665317 6.415809 0.000000 -6.201593 0.000000
-91.735608 94.556396 75.743750 -1.385553 1.433383 2.597700 0.284760 0.205135 -1.398277 0.240194 0.035951 -1.094607 0.019131 -0.200623 -0.757700 -0.043314 -0.288028 -0.429646 1.798722 -7.541069 0.653216 0.745905 5.805441 1.044812 6.978709 1.663657 -4.007977 -13.469085 6.455418 -61.767305 -11.702140 3.418385 -1.237959 8.414199 6.884922 -5.551222 -6.567135 -2.792777 2.779184 14.123580 7.117508 60.857195 7.178808 11.272966 3.909831 -13.827839 -4.594277 12.328674 25.352243 -1.414341 2.760868 0.000000 3.092566 0.000000 -1.899024 3.272071 -1.981982 0.000000 -5.756599 0.000000 -10.287954 0.377050 -11.532221 0.000000 1.788662 0.000000 3.231186 0.679540 6.423656 0.000000 -6.200933 0.000000
-91.730347 94.558539 75.739850 -1.386183 1.436262 2.618448 0.284933 0.202032 -1.410149 0.236584 0.049936 -1.106056 0.020556 -0.202569 -0.762101 -0.042836 -0.276591 -0.436484 1.771972 -7.513374 0.661226 0.733748 5.735199 1.064836 6.976497 1.631557 -3.986808 -13.438336 6.457739 -61.763583 -11.709317 3.388287 -1.276464 8.433444 6.908604 -5.555408 -6.527081 -2.760667 2.792137 14.046437 7.096870 60.822304 7.220217 11.383334 3.932041 -13.843456 -4.569912 12.356980 25.377987 -1.398691 2.734744 0.000000 3.071832 0.000000 -1.913842 3.285580 -2.018177 0.000000 -5.746857 0.000000 -10.281016 0.363783 -11.556106 0.000000 1.798798 0.000000 3.227566 0.682512 6.426321 0.000000 -6.192581 0.000000
-91.725366 94.562134 75.741125 -1.380877 1.437994 2.616546 0.293816 0.205386 -1.393555 0.245204 0.046335 -1.110239 0.015717 -0.189876 -0.776058 -0.049447 -0.280130 -0.431048 1.750542 -7.488199 0.679499 0.724491 5.685141 1.036804 6.970958 1.641920 -3.977263 -13.474589 6.454460 -61.790292 -11.704344 3.411047 -1.249547 8.468670 6.901094 -5.586018 -6.553034 -2.733948 2.788222 14.142336 7.154936 60.807318 7.250748 11.381537 3.886895 -13.781311 -4.393572 12.578567 25.386589 -1.393624 2.732316 0.000000 3.059891 0.000000 -1.930086 3.286781 -1.996984 0.000000 -5.720556 0.000000 -10.279967 0.362642 -11.556463 0.000000 1.797978 0.000000 3.223564 0.696508 6.398976 0.000000 -6.210940 0.000000
-91.725800 94.561914 75.740155 -1.376526 1.446530 2.618387 0.299255 0.200885 -1.394909 0.248612 0.045990 -1.113412 0.015736 -0.171110 -0.779123 -0.051679 -0.288345 -0.411426 1.731535 -7.485009 0.673057 0.716619 5.677074 1.023705 6.958108 1.634502 -3.979968 -13.455208 6.453088 -61.790601 -11.704650 3.419663 -1.280431 8.476771 6.881085 -5.624020 -6.561640 -2.758476 2.742605 14.235765 7.241727 60.870267 7.236809 11.408673 3.749019 -13.753032 -4.085446 12.905778 25.397154 -1.385971 2.724798 0.000000 3.027627 0.000000 -1.936361 3.296241 -1.975919 0.000000 -5.742590 0.000000 -10.302913 0.358998 -11.555452 0.000000 1.777045 0.000000 3.238127 0.715385 6.412432 0.000000 -6.206994 0.000000
-91.718317 94.565363 75.740393 -1.380667 1.447931 2.614828 0.300275 0.221123 -1.402991 0.249036 0.028391 -1.098743 0.004657 -0.184150 -0.758270 -0.060229 -0.259555 -0.428172 1.738605 -7.480861 0.665905 0.719258 5.651392 1.054467 7.005304 1.631539 -3.982962 -13.490683 6.433823 -61.794365 -11.693069 3.414762 -1.283100 8.509633 6.898382 -5.694521 -6.542333 -2.754843 2.742350 14.218226 7.236190 60.808952 7.277497 11.493382 3.836833 -13.743535 -4.098717 12.899068 25.394771 -1.380998 2.723519 0.000000 3.018612 0.000000 -1.926790 3.306017 -2.019414 0.000000 -5.746415 0.000000 -10.286541 0.360240 -11.556692 0.000000 1.778671 0.000000 3.227051 0.723105 6.428502 0.000000 -6.192590 0.000000
-91.719482 94.566876 75.741882 -1.370103 1.453380 2.620499 0.302875 0.211158 -1.406032 0.250251 0.032405 -1.115290 -0.001673 -0.173337 -0.773663 -0.069462 -0.240595 -0.401704 1.732360 -7.508461 0.688319 0.716158 5.666110 1.043987 7.016855 1.603849 -3.966105 -13.479515 6.425137 -61.803345 -11.701544 3.426288 -1.312783 8.545646 6.927777 -5.763983 -6.537208 -2.740924 2.739175 14.214479 7.225305 60.772866 7.314567 11.529270 3.904517 -13.765568 -4.105329 12.826637 25.414278 -1.379925 2.715732 0.000000 3.007081 0.000000 -1.956525 3.308114 -2.013100 0.000000 -5.718983 0.000000 -10.271369 0.368685 -11.560029 0.000000 1.760989 0.000000 3.200168 0.727326 6.386200 0.000000 -6.184972 0.000000
